<svg xmlns="http://www.w3.org/2000/svg" viewBox="0 0 200 200" width="200" height="200">
  <defs>
    <clipPath id="card">
      <rect x="0" y="0" width="200" height="200" rx="24" ry="24"/>
    </clipPath>
  </defs>
  <rect x="0" y="0" width="200" height="200" rx="24" ry="24" fill="#F7F6F3"/>
  <g clip-path="url(#card)">

    <circle cx="100" cy="65" r="20" fill="#3A5078"/>
    <path d="M 75 130 Q 75 95 100 95 Q 125 95 125 130" fill="#3A5078" stroke="none" stroke-width="0" stroke-linecap="round" stroke-linejoin="round"/>
    <circle cx="58" cy="80" r="14" fill="#1B2A4A"/>
    <path d="M 40 128 Q 40 105 58 105 Q 76 105 76 128" fill="#1B2A4A" stroke="none" stroke-width="0" stroke-linecap="round" stroke-linejoin="round"/>
    <circle cx="142" cy="80" r="14" fill="#1B2A4A"/>
    <path d="M 124 128 Q 124 105 142 105 Q 160 105 160 128" fill="#1B2A4A" stroke="none" stroke-width="0" stroke-linecap="round" stroke-linejoin="round"/>
    <rect x="50" y="152" width="100" height="24" rx="12" fill="#3A5078"/>
    <text x="100" y="169" text-anchor="middle" font-family="system-ui, -apple-system, sans-serif" font-size="13" fill="#F7F6F3" font-weight="bold">CLUB</text>
  </g>
</svg>