<svg xmlns="http://www.w3.org/2000/svg" viewBox="0 0 200 200" width="200" height="200">
  <defs>
    <clipPath id="card">
      <rect x="0" y="0" width="200" height="200" rx="24" ry="24"/>
    </clipPath>
  </defs>
  <rect x="0" y="0" width="200" height="200" rx="24" ry="24" fill="#F7F6F3"/>
  <g clip-path="url(#card)">

    <path d="M 85 30 Q 85 20 100 15 Q 115 20 115 30 L 120 90 Q 120 100 100 105 Q 80 100 80 90 Z" fill="#3A5078" stroke="none" stroke-width="0" stroke-linecap="round" stroke-linejoin="round"/>
    <circle cx="100" cy="60" r="10" fill="#1B2A4A"/>
    <circle cx="100" cy="60" r="6" fill="#F7F6F3"/>
    <path d="M 80 85 L 60 105 L 80 95 Z" fill="#1B2A4A" stroke="none" stroke-width="0" stroke-linecap="round" stroke-linejoin="round"/>
    <path d="M 120 85 L 140 105 L 120 95 Z" fill="#1B2A4A" stroke="none" stroke-width="0" stroke-linecap="round" stroke-linejoin="round"/>
    <path d="M 90 105 L 100 140 L 110 105 Z" fill="#C9A96E" stroke="none" stroke-width="0" stroke-linecap="round" stroke-linejoin="round"/>
    <path d="M 95 105 L 100 130 L 105 105 Z" fill="#F5D78C" stroke="none" stroke-width="0" stroke-linecap="round" stroke-linejoin="round"/>
    <rect x="50" y="152" width="100" height="24" rx="12" fill="#3A5078"/>
    <text x="100" y="169" text-anchor="middle" font-family="system-ui, -apple-system, sans-serif" font-size="13" fill="#F7F6F3" font-weight="bold">HUST</text>
  </g>
</svg>