<svg xmlns="http://www.w3.org/2000/svg" viewBox="0 0 200 200" width="200" height="200">
  <defs>
    <clipPath id="card">
      <rect x="0" y="0" width="200" height="200" rx="24" ry="24"/>
    </clipPath>
  </defs>
  <rect x="0" y="0" width="200" height="200" rx="24" ry="24" fill="#F7F6F3"/>
  <g clip-path="url(#card)">

    <path d="M 55 55 L 85 55 L 85 65 Q 95 65 95 75 Q 95 85 85 85 L 85 95 L 55 95 L 55 85 Q 45 85 45 75 Q 45 65 55 65 Z" fill="#4A6A8A" stroke="none" stroke-width="0" stroke-linecap="round" stroke-linejoin="round"/>
    <path d="M 88 55 L 118 55 L 118 65 Q 128 65 128 75 Q 128 85 118 85 L 118 95 L 88 95 Z" fill="#1B2A4A" stroke="none" stroke-width="0" stroke-linecap="round" stroke-linejoin="round"/>
    <path d="M 55 98 L 85 98 L 85 108 Q 95 108 95 118 Q 95 128 85 128 L 85 138 L 55 138 L 55 128 Q 45 128 45 118 Q 45 108 55 108 Z" fill="#1B2A4A" stroke="none" stroke-width="0" stroke-linecap="round" stroke-linejoin="round"/>
    <path d="M 88 98 L 118 98 L 118 108 Q 128 108 128 118 Q 128 128 118 128 L 118 138 L 88 138 Z" fill="#4A6A8A" stroke="none" stroke-width="0" stroke-linecap="round" stroke-linejoin="round"/>
    <rect x="50" y="152" width="100" height="24" rx="12" fill="#4A6A8A"/>
    <text x="100" y="169" text-anchor="middle" font-family="system-ui, -apple-system, sans-serif" font-size="13" fill="#F7F6F3" font-weight="bold">MODS</text>
  </g>
</svg>