<svg xmlns="http://www.w3.org/2000/svg" viewBox="0 0 200 200" width="200" height="200">
  <defs>
    <clipPath id="card">
      <rect x="0" y="0" width="200" height="200" rx="24" ry="24"/>
    </clipPath>
  </defs>
  <rect x="0" y="0" width="200" height="200" rx="24" ry="24" fill="#F7F6F3"/>
  <g clip-path="url(#card)">

    <line x1="100" y1="70" x2="40" y2="30" stroke="#C9A96E" stroke-width="1.5" stroke-linecap="round"/>
    <line x1="100" y1="70" x2="160" y2="30" stroke="#C9A96E" stroke-width="1.5" stroke-linecap="round"/>
    <line x1="100" y1="70" x2="100" y2="15" stroke="#C9A96E" stroke-width="1.5" stroke-linecap="round"/>
    <line x1="100" y1="70" x2="40" y2="110" stroke="#C9A96E" stroke-width="1.5" stroke-linecap="round"/>
    <line x1="100" y1="70" x2="160" y2="110" stroke="#C9A96E" stroke-width="1.5" stroke-linecap="round"/>
    <path d="M 75 70 Q 75 40 100 35 Q 125 40 125 70 L 130 100 Q 130 110 115 110 L 115 115 L 130 125 L 70 125 L 85 115 L 85 110 Q 70 110 70 100 Z" fill="#1B2A4A" stroke="none" stroke-width="0" stroke-linecap="round" stroke-linejoin="round"/>
    <path d="M 100 35 Q 85 55 90 65 Q 95 45 100 45 Q 105 45 110 65 Q 115 55 100 35 Z" fill="#C9A96E" stroke="none" stroke-width="0" stroke-linecap="round" stroke-linejoin="round"/>
    <rect x="90" y="125" width="20" height="4" rx="2" fill="#3A5078"/>
    <rect x="50" y="152" width="100" height="24" rx="12" fill="#1B2A4A"/>
    <text x="100" y="169" text-anchor="middle" font-family="system-ui, -apple-system, sans-serif" font-size="13" fill="#F7F6F3" font-weight="bold">ORCL</text>
  </g>
</svg>