<svg xmlns="http://www.w3.org/2000/svg" viewBox="0 0 200 200" width="200" height="200">
  <defs>
    <clipPath id="card">
      <rect x="0" y="0" width="200" height="200" rx="24" ry="24"/>
    </clipPath>
  </defs>
  <rect x="0" y="0" width="200" height="200" rx="24" ry="24" fill="#F7F6F3"/>
  <g clip-path="url(#card)">

    <path d="M 100 75 Q 70 40 35 55 Q 55 70 55 90 Q 55 110 100 75 Z" fill="#C9A96E" stroke="none" stroke-width="0" stroke-linecap="round" stroke-linejoin="round"/>
    <path d="M 100 75 Q 75 50 50 60 Q 65 75 65 90 Q 65 105 100 75 Z" fill="#1B2A4A" stroke="none" stroke-width="0" stroke-linecap="round" stroke-linejoin="round"/>
    <path d="M 100 75 Q 130 40 165 55 Q 145 70 145 90 Q 145 110 100 75 Z" fill="#C9A96E" stroke="none" stroke-width="0" stroke-linecap="round" stroke-linejoin="round"/>
    <path d="M 100 75 Q 125 50 150 60 Q 135 75 135 90 Q 135 105 100 75 Z" fill="#1B2A4A" stroke="none" stroke-width="0" stroke-linecap="round" stroke-linejoin="round"/>
    <path d="M 100 60 Q 88 100 90 125 L 110 125 Q 112 100 100 60 Z" fill="#3A5078" stroke="none" stroke-width="0" stroke-linecap="round" stroke-linejoin="round"/>
    <circle cx="100" cy="52" r="12" fill="#3A5078"/>
    <rect x="50" y="152" width="100" height="24" rx="12" fill="#C9A96E"/>
    <text x="100" y="169" text-anchor="middle" font-family="system-ui, -apple-system, sans-serif" font-size="13" fill="#F7F6F3" font-weight="bold">RISE</text>
  </g>
</svg>