<svg xmlns="http://www.w3.org/2000/svg" viewBox="0 0 200 200" width="200" height="200">
  <defs>
    <clipPath id="card">
      <rect x="0" y="0" width="200" height="200" rx="24" ry="24"/>
    </clipPath>
  </defs>
  <rect x="0" y="0" width="200" height="200" rx="24" ry="24" fill="#F7F6F3"/>
  <g clip-path="url(#card)">

    <path d="M 100 25 L 155 45 L 155 105 Q 155 145 100 155 Q 45 145 45 105 L 45 45 Z" fill="#1B2A4A" stroke="none" stroke-width="0" stroke-linecap="round" stroke-linejoin="round"/>
    <path d="M 100 35 L 145 52 L 145 105 Q 145 138 100 147 Q 55 138 55 105 L 55 52 Z" fill="#3A5078" stroke="none" stroke-width="0" stroke-linecap="round" stroke-linejoin="round"/>
    <path d="M 100 55 L 85 92 L 100 92 L 90 120 L 115 80 L 100 80 L 110 55 Z" fill="#C9A96E" stroke="none" stroke-width="0" stroke-linecap="round" stroke-linejoin="round"/>
    <rect x="50" y="152" width="100" height="24" rx="12" fill="#1B2A4A"/>
    <text x="100" y="169" text-anchor="middle" font-family="system-ui, -apple-system, sans-serif" font-size="13" fill="#F7F6F3" font-weight="bold">TITN</text>
  </g>
</svg>