<svg xmlns="http://www.w3.org/2000/svg" viewBox="0 0 200 200" width="200" height="200">
  <defs>
    <clipPath id="card">
      <rect x="0" y="0" width="200" height="200" rx="24" ry="24"/>
    </clipPath>
  </defs>
  <rect x="0" y="0" width="200" height="200" rx="24" ry="24" fill="#F7F6F3"/>
  <g clip-path="url(#card)">
    <line x1="140.0" y1="72.0" x2="155.0" y2="72.0" stroke="#C9A96E" stroke-width="3" stroke-linecap="round"/>
    <line x1="128.2842712474619" y1="100.2842712474619" x2="138.89087296526012" y2="110.89087296526012" stroke="#C9A96E" stroke-width="3" stroke-linecap="round"/>
    <line x1="100.0" y1="112.0" x2="100.0" y2="127.0" stroke="#C9A96E" stroke-width="3" stroke-linecap="round"/>
    <line x1="71.7157287525381" y1="100.2842712474619" x2="61.10912703473989" y2="110.89087296526012" stroke="#C9A96E" stroke-width="3" stroke-linecap="round"/>
    <line x1="60.0" y1="72.0" x2="45.0" y2="72.0" stroke="#C9A96E" stroke-width="3" stroke-linecap="round"/>
    <line x1="71.7157287525381" y1="43.7157287525381" x2="61.10912703473988" y2="33.10912703473989" stroke="#C9A96E" stroke-width="3" stroke-linecap="round"/>
    <line x1="99.99999999999999" y1="32.0" x2="99.99999999999999" y2="17.0" stroke="#C9A96E" stroke-width="3" stroke-linecap="round"/>
    <line x1="128.2842712474619" y1="43.71572875253809" x2="138.8908729652601" y2="33.10912703473988" stroke="#C9A96E" stroke-width="3" stroke-linecap="round"/>
    <circle cx="100" cy="72" r="30" fill="#C9A96E"/>
    <circle cx="90" cy="66" r="3" fill="#F7F6F3"/>
    <circle cx="110" cy="66" r="3" fill="#F7F6F3"/>
    <path d="M 88 78 Q 100 90 112 78" fill="none" stroke="#F7F6F3" stroke-width="2.5" stroke-linecap="round" stroke-linejoin="round"/>
    <rect x="50" y="152" width="100" height="24" rx="12" fill="#4A6A8A"/>
    <text x="100" y="169" text-anchor="middle" font-family="system-ui, -apple-system, sans-serif" font-size="13" fill="#F7F6F3" font-weight="bold">WARM</text>
  </g>
</svg>